# xmcd CD database file
# Copyright (C) 1997 Ti Kan
# 
# Track frame offsets:
#     182
#     9567
#     22810
#     34215
#     46887
#     59912
#     71522
#     84540
#     96567
#     110782
#     120695
#     133295
#     143577
#     157885
# 
# Disc length: 2268 seconds
# 
# Revision: 1
# Processed by: cddbd v1.4b41PL1 Copyright (c) Steve Scherf et al.
# Submitted via: DiscPlay 4.0.4
# 
DISCID=c508da0e
DTITLE=John Hogan - Humble Man
DYEAR=1900
DGENRE=
TTITLE0=don't fight the feeling
TTITLE1=still got a crush on you
TTITLE2=walkin' in the sun
TTITLE3=she's more to be pitied
TTITLE4=the picture
TTITLE5=the wreck of the old No. 9
TTITLE6=china doll
TTITLE7=let it be you
TTITLE8=humble man
TTITLE9=i'll be gone
TTITLE10=something's wrong
TTITLE11=down by the river
TTITLE12=follow me
TTITLE13=please don't forget me
EXTD=
EXTT0=
EXTT1=
EXTT2=
EXTT3=
EXTT4=
EXTT5=
EXTT6=
EXTT7=
EXTT8=
EXTT9=
EXTT10=
EXTT11=
EXTT12=
EXTT13=
PLAYORDER=
